<svg width="3788" height="2998" xmlns="http://www.w3.org/2000/svg" xmlns:xlink="http://www.w3.org/1999/xlink" xml:space="preserve" overflow="hidden"><g transform="translate(2 -92)"><path d="M0.499836 315.194C0.499836 193.308 99.308 94.5 221.194 94.5L2363.81 94.5C2485.69 94.5 2584.5 193.308 2584.5 315.194L2584.5 2353.81C2584.5 2475.69 2485.69 2574.5 2363.81 2574.5L221.194 2574.5C99.308 2574.5 0.499836 2475.69 0.499836 2353.81Z" stroke="#172C51" stroke-width="4.58333" stroke-miterlimit="8" fill="#FFF2CC" fill-rule="evenodd"/><path d="M168.5 402.001C168.5 391.783 176.783 383.5 187.001 383.5L818.999 383.5C829.217 383.5 837.5 391.783 837.5 402.001L837.5 475.999C837.5 486.217 829.217 494.5 818.999 494.5L187.001 494.5C176.783 494.5 168.5 486.217 168.5 475.999Z" stroke="#172C51" stroke-width="4.58333" stroke-miterlimit="8" fill="#F4B183" fill-rule="evenodd"/><text fill="#0D0CFC" font-family="Consolas,Consolas_MSFontService,sans-serif" font-weight="400" font-size="55" transform="matrix(1 0 0 1 304.781 458)">mem_model</text><text font-family="Consolas,Consolas_MSFontService,sans-serif" font-weight="400" font-size="55" transform="matrix(1 0 0 1 608.427 458)">mem</text><path d="M104.5 952.334C104.5 927.021 125.021 906.5 150.334 906.5L949.666 906.5C974.979 906.5 995.5 927.021 995.5 952.334L995.5 1135.67C995.5 1160.98 974.979 1181.5 949.666 1181.5L150.334 1181.5C125.021 1181.5 104.5 1160.98 104.5 1135.67Z" stroke="#172C51" stroke-width="4.58333" stroke-miterlimit="8" fill="#FFD5D5" fill-rule="evenodd"/><path d="M168.5 1052.83C168.5 1043.26 176.261 1035.5 185.834 1035.5L915.166 1035.5C924.74 1035.5 932.5 1043.26 932.5 1052.83L932.5 1122.17C932.5 1131.74 924.74 1139.5 915.166 1139.5L185.834 1139.5C176.261 1139.5 168.5 1131.74 168.5 1122.17Z" stroke="#172C51" stroke-width="4.58333" stroke-miterlimit="8" stroke-dasharray="18.3333 13.75" fill="#FBE5D6" fill-rule="evenodd"/><text fill="#0D0CFC" font-family="Consolas,Consolas_MSFontService,sans-serif" font-weight="400" font-size="55" transform="matrix(1 0 0 1 352.24 1106)">mem_model</text><text font-family="Consolas,Consolas_MSFontService,sans-serif" font-weight="400" font-size="55" transform="matrix(1 0 0 1 655.885 1106)">mem</text><path d="M1360.5 661.004C1360.5 570.703 1433.7 497.5 1524 497.5L2297 497.5C2387.3 497.5 2460.5 570.703 2460.5 661.004L2460.5 1315C2460.5 1405.3 2387.3 1478.5 2297 1478.5L1524 1478.5C1433.7 1478.5 1360.5 1405.3 1360.5 1315Z" stroke="#172C51" stroke-width="4.58333" stroke-miterlimit="8" fill="#E2F0D9" fill-rule="evenodd"/><path d="M1455.5 754.501C1455.5 729.648 1475.65 709.5 1500.5 709.5L2324.5 709.5C2349.35 709.5 2369.5 729.648 2369.5 754.501L2369.5 934.499C2369.5 959.352 2349.35 979.5 2324.5 979.5L1500.5 979.5C1475.65 979.5 1455.5 959.352 1455.5 934.499Z" stroke="#172C51" stroke-width="4.58333" stroke-miterlimit="8" fill="#C5E0B4" fill-rule="evenodd"/><path d="M1464.5 1160.5C1464.5 1135.65 1484.65 1115.5 1509.5 1115.5L2324.5 1115.5C2349.35 1115.5 2369.5 1135.65 2369.5 1160.5L2369.5 1340.5C2369.5 1365.35 2349.35 1385.5 2324.5 1385.5L1509.5 1385.5C1484.65 1385.5 1464.5 1365.35 1464.5 1340.5Z" stroke="#172C51" stroke-width="4.58333" stroke-miterlimit="8" fill="#C5E0B4" fill-rule="evenodd"/><rect x="1533.5" y="848.5" width="759" height="91.0001" stroke="#172C51" stroke-width="4.58333" stroke-miterlimit="8" stroke-dasharray="18.3333 13.75" fill="#D9D9D9"/><text fill="#0D0CFC" font-family="Consolas,Consolas_MSFontService,sans-serif" font-weight="400" font-size="48" transform="matrix(1 0 0 1 1648.77 910)">miriscv_mem_intf</text><text font-family="Consolas,Consolas_MSFontService,sans-serif" font-weight="400" font-size="48" transform="matrix(1 0 0 1 2096.79 910)">vif</text><rect x="1530.5" y="1246.5" width="762" height="92.0001" stroke="#172C51" stroke-width="4.58333" stroke-miterlimit="8" stroke-dasharray="18.3333 13.75" fill="#D9D9D9"/><text fill="#0D0CFC" font-family="Consolas,Consolas_MSFontService,sans-serif" font-weight="400" font-size="50" transform="matrix(1 0 0 1 1636.42 1310)">miriscv_mem_intf</text><text font-family="Consolas,Consolas_MSFontService,sans-serif" font-weight="400" font-size="50" transform="matrix(1 0 0 1 2103.92 1310)">vif</text><path d="M870.5 698.334C870.5 686.828 879.827 677.5 891.334 677.5L974.666 677.5C986.172 677.5 995.5 686.828 995.5 698.334L995.5 782.666C995.5 794.172 986.172 803.5 974.666 803.5L891.334 803.5C879.827 803.5 870.5 794.172 870.5 782.666Z" stroke="#172C51" stroke-width="4.58333" stroke-miterlimit="8" fill="#FFD5D5" fill-rule="evenodd"/><path d="M869.5 1314.33C869.5 1302.83 878.827 1293.5 890.334 1293.5L973.666 1293.5C985.172 1293.5 994.5 1302.83 994.5 1314.33L994.5 1398.67C994.5 1410.17 985.172 1419.5 973.666 1419.5L890.334 1419.5C878.827 1419.5 869.5 1410.17 869.5 1398.67Z" stroke="#172C51" stroke-width="4.58333" stroke-miterlimit="8" fill="#FFD5D5" fill-rule="evenodd"/><text fill="#0D0CFC" font-family="Consolas,Consolas_MSFontService,sans-serif" font-weight="400" font-size="73" transform="matrix(1 0 0 1 951.029 225)">miriscv_test</text><text font-family="Consolas,Consolas_MSFontService,sans-serif" font-weight="400" font-size="73" transform="matrix(1 0 0 1 1472.38 225)">test</text><text fill="#0D0CFC" font-family="Consolas,Consolas_MSFontService,sans-serif" font-weight="400" font-size="64" transform="matrix(1 0 0 1 1474.37 627)">miriscv_mem_agent</text><text font-family="Consolas,Consolas_MSFontService,sans-serif" font-weight="400" font-size="64" transform="matrix(1 0 0 1 2113.74 627)">mem_slv</text><text fill="#0D0CFC" font-family="Consolas,Consolas_MSFontService,sans-serif" font-weight="400" font-size="55" transform="matrix(1 0 0 1 1583.76 787)">miriscv_mem_driver</text><text font-family="Consolas,Consolas_MSFontService,sans-serif" font-weight="400" font-size="55" transform="matrix(1 0 0 1 2160.69 787)">drv</text><text fill="#0D0CFC" font-family="Consolas,Consolas_MSFontService,sans-serif" font-weight="400" font-size="55" transform="matrix(1 0 0 1 1578.65 1199)">miriscv_mem_monitor</text><text font-family="Consolas,Consolas_MSFontService,sans-serif" font-weight="400" font-size="55" transform="matrix(1 0 0 1 2185.94 1199)">mon</text><text fill="#0D0CFC" font-family="Consolas,Consolas_MSFontService,sans-serif" font-weight="400" font-size="50" transform="matrix(1 0 0 1 174.412 983)">miriscv_mem_slv_seq</text><text font-family="Consolas,Consolas_MSFontService,sans-serif" font-weight="400" font-size="50" transform="matrix(1 0 0 1 724.412 983)">slv_seq</text><path d="M548.854 906.091 548.854 842.854 1432.37 842.854 1432.37 845.146 550 845.146 551.146 844 551.146 906.091ZM1427.78 830.25 1455.28 844 1427.78 857.75Z"/><path d="M1463.91 1251.34 548.854 1251.34 548.854 1203.92 551.146 1203.92 551.146 1250.19 550 1249.05 1463.91 1249.05ZM536.25 1208.5 550 1181 563.75 1208.5Z"/><path d="M727 738.854 814.083 738.855 814.083 741.146 727 741.146ZM809.5 726.25 837 740 809.5 753.75Z"/><path d="M3.7593e-06-1.14583 87.0834-1.14555 87.0833 1.14612-3.7593e-06 1.14583ZM82.5-13.7497 110 0.000360892 82.5 13.7503Z" transform="matrix(-1 0 0 1 1144 1356)"/><path d="M2.29167-1.53632e-06 2.29168 18.3333-2.29165 18.3333-2.29167 1.53632e-06ZM2.29169 32.0833 2.2917 50.4167-2.29163 50.4167-2.29165 32.0833ZM2.29171 64.1667 2.29172 82.5-2.29161 82.5-2.29162 64.1667ZM2.29173 96.25 2.29174 114.583-2.29159 114.583-2.2916 96.25ZM2.29175 128.333 2.29176 146.667-2.29157 146.667-2.29158 128.333ZM2.29177 160.417 2.29179 178.75-2.29155 178.75-2.29156 160.417ZM2.2918 192.5 2.29181 210.833-2.29153 210.833-2.29154 192.5ZM2.29182 224.583 2.29183 242.917-2.2915 242.917-2.29152 224.583ZM2.29184 256.667 2.29185 275-2.29148 275-2.29149 256.667ZM2.29186 288.75 2.29187 307.083-2.29146 307.083-2.29147 288.75ZM2.29188 320.833 2.29189 339.167-2.29144 339.167-2.29145 320.833ZM2.2919 352.917 2.29192 371.25-2.29142 371.25-2.29143 352.917ZM2.29192 385 2.29194 403.333-2.2914 403.333-2.29141 385ZM2.29195 417.083 2.29196 435.417-2.29137 435.417-2.29139 417.083ZM2.29197 449.167 2.29198 467.5-2.29135 467.5-2.29137 449.167ZM2.29199 481.25 2.292 499.583-2.29133 499.583-2.29134 481.25ZM2.29201 513.333 2.29201 515.411-2.29132 515.411-2.29132 513.333ZM13.7503 510.827 0.000360892 538.327-13.7497 510.827Z" transform="matrix(1 0 0 -1 273.5 1035.83)"/><path d="M1360.5 1697.33C1360.5 1672.57 1380.57 1652.5 1405.33 1652.5L2415.67 1652.5C2440.43 1652.5 2460.5 1672.57 2460.5 1697.33L2460.5 1876.67C2460.5 1901.43 2440.43 1921.5 2415.67 1921.5L1405.33 1921.5C1380.57 1921.5 1360.5 1901.43 1360.5 1876.67Z" stroke="#172C51" stroke-width="4.58333" stroke-miterlimit="8" fill="#C5E0B4" fill-rule="evenodd"/><rect x="1464.5" y="1790.5" width="905" height="91.9998" stroke="#172C51" stroke-width="4.58333" stroke-miterlimit="8" stroke-dasharray="18.3333 13.75" fill="#D9D9D9"/><text fill="#0D0CFC" font-family="Consolas,Consolas_MSFontService,sans-serif" font-weight="400" font-size="48" transform="matrix(1 0 0 1 1639.44 1852)">miriscv_rvfi_intf</text><text font-family="Consolas,Consolas_MSFontService,sans-serif" font-weight="400" font-size="48" transform="matrix(1 0 0 1 2113.82 1852)">vif</text><text fill="#0D0CFC" font-family="Consolas,Consolas_MSFontService,sans-serif" font-weight="400" font-size="64" transform="matrix(1 0 0 1 1496.52 1738)">miriscv_rvfi_monitor</text><text font-family="Consolas,Consolas_MSFontService,sans-serif" font-weight="400" font-size="64" transform="matrix(1 0 0 1 2242.46 1738)">mon</text><path d="M104.5 2108.83C104.5 2074.96 131.961 2047.5 165.835 2047.5L2399.17 2047.5C2433.04 2047.5 2460.5 2074.96 2460.5 2108.83L2460.5 2354.17C2460.5 2388.04 2433.04 2415.5 2399.17 2415.5L165.835 2415.5C131.961 2415.5 104.5 2388.04 104.5 2354.17Z" stroke="#172C51" stroke-width="4.58333" stroke-miterlimit="8" fill="#DEEBF7" fill-rule="evenodd"/><path d="M869.5 1638.33C869.5 1626.83 878.827 1617.5 890.334 1617.5L973.667 1617.5C985.173 1617.5 994.5 1626.83 994.5 1638.33L994.5 1722.67C994.5 1734.17 985.173 1743.5 973.667 1743.5L890.334 1743.5C878.827 1743.5 869.5 1734.17 869.5 1722.67Z" stroke="#172C51" stroke-width="4.58333" stroke-miterlimit="8" fill="#DEEBF7" fill-rule="evenodd"/><path d="M0-1.14583 810.758-1.14583 810.944 238.016 808.652 238.017 808.467 0.00089127 809.613 1.14583 0 1.14583ZM823.352 232.881 810.724 260.914 795.874 233.992Z" transform="matrix(-1 1.22465e-16 1.22465e-16 1 1360.72 1786)"/><path d="M3.7593e-06-1.14583 87.0834-1.14555 87.0833 1.14612-3.7593e-06 1.14583ZM82.5-13.7497 110 0.000360892 82.5 13.7503Z" transform="matrix(-1 0 0 1 1144 1680)"/><path d="M804.5 2260C804.5 2249.78 812.783 2241.5 823 2241.5L1743 2241.5C1753.22 2241.5 1761.5 2249.78 1761.5 2260L1761.5 2334C1761.5 2344.22 1753.22 2352.5 1743 2352.5L823 2352.5C812.783 2352.5 804.5 2344.22 804.5 2334Z" stroke="#172C51" stroke-width="4.58333" stroke-miterlimit="8" stroke-dasharray="18.3333 13.75" fill="#9DC3E6" fill-rule="evenodd"/><text fill="#0D0CFC" font-family="Consolas,Consolas_MSFontService,sans-serif" font-weight="400" font-size="64" transform="matrix(1 0 0 1 1033.76 2319)">chandle</text><text font-family="Consolas,Consolas_MSFontService,sans-serif" font-weight="400" font-size="64" transform="matrix(1 0 0 1 1317.92 2319)">hammer</text><text fill="#0D0CFC" font-family="Consolas,Consolas_MSFontService,sans-serif" font-weight="400" font-size="73" transform="matrix(1 0 0 1 836.626 2162)">miriscv_scoreboard</text><text font-family="Consolas,Consolas_MSFontService,sans-serif" font-weight="400" font-size="73" transform="matrix(1 0 0 1 1598.6 2162)">scb</text><path d="M104.5 2697.83C104.5 2684.39 115.394 2673.5 128.833 2673.5L2436.17 2673.5C2449.61 2673.5 2460.5 2684.39 2460.5 2697.83L2460.5 2795.17C2460.5 2808.61 2449.61 2819.5 2436.17 2819.5L128.833 2819.5C115.394 2819.5 104.5 2808.61 104.5 2795.17Z" stroke="#172C51" stroke-width="4.58333" stroke-miterlimit="8" stroke-dasharray="18.3333 13.75" fill="#9DC3E6" fill-rule="evenodd"/><text font-family="JetBrains Mono,JetBrains Mono_MSFontService,sans-serif" font-weight="400" font-size="64" transform="matrix(1 0 0 1 1071.28 2767)">libhammer.a</text><path d="M1284.79 2352.5 1284.79 2370.83 1280.21 2370.83 1280.21 2352.5ZM1284.79 2384.58 1284.79 2402.92 1280.21 2402.92 1280.21 2384.58ZM1284.79 2416.67 1284.79 2435 1280.21 2435 1280.21 2416.67ZM1284.79 2448.75 1284.79 2467.08 1280.21 2467.08 1280.21 2448.75ZM1284.79 2480.83 1284.79 2499.17 1280.21 2499.17 1280.21 2480.83ZM1284.79 2512.92 1284.79 2531.25 1280.21 2531.25 1280.21 2512.92ZM1284.79 2545 1284.79 2563.33 1280.21 2563.33 1280.21 2545ZM1284.79 2577.08 1284.79 2595.42 1280.21 2595.42 1280.21 2577.08ZM1284.79 2609.17 1284.79 2627.5 1280.21 2627.5 1280.21 2609.17ZM1284.79 2641.25 1284.79 2651.04 1280.21 2651.04 1280.21 2641.25ZM1296.25 2646.46 1282.5 2673.96 1268.75 2646.46Z"/><path d="M104.5 2956.83C104.5 2943.39 115.394 2932.5 128.833 2932.5L2436.17 2932.5C2449.61 2932.5 2460.5 2943.39 2460.5 2956.83L2460.5 3054.17C2460.5 3067.61 2449.61 3078.5 2436.17 3078.5L128.833 3078.5C115.394 3078.5 104.5 3067.61 104.5 3054.17Z" stroke="#000000" stroke-width="4.58333" stroke-miterlimit="8" fill="#9DC3E6" fill-rule="evenodd"/><path d="M1284.79 2819.5 1284.79 2837.83 1280.21 2837.83 1280.21 2819.5ZM1284.79 2851.58 1284.79 2869.92 1280.21 2869.92 1280.21 2851.58ZM1284.79 2883.67 1284.79 2902 1280.21 2902 1280.21 2883.67ZM1296.25 2904.02 1282.5 2931.52 1268.75 2904.02Z"/><g><g><g><path d="M76.3273 65.2498C76.9339 64.1991 77.3108 63.0152 77.3108 61.952L77.3108 25.0477C77.3108 23.9846 76.9344 22.8009 76.3275 21.7501L38.6554 43.5 76.3273 65.2498Z" fill="#00599C" transform="matrix(1.00789 0 0 1 1377.04 2961)"/><path d="M42.003 86.2023 73.9632 67.7503C74.8839 67.2187 75.7207 66.3009 76.3273 65.2498L38.6554 43.5 0.983566 65.2501C1.59018 66.3009 2.42721 67.219 3.34761 67.7503L35.3078 86.2023C37.1489 87.2655 40.162 87.2655 42.003 86.2023Z" fill="#004482" transform="matrix(1.00789 0 0 1 1377.04 2961)"/><path d="M76.3275 21.7499C75.7207 20.6988 74.8836 19.781 73.9632 19.2494L42.003 0.797363C40.162-0.265788 37.1489-0.265788 35.3078 0.797363L3.34761 19.2494C1.5063 20.3123 0 22.9217 0 25.0477L0 61.952C0 63.0152 0.376701 64.1991 0.983566 65.2498L38.6554 43.5 76.3275 21.7499Z" fill="#659AD2" transform="matrix(1.00789 0 0 1 1377.04 2961)"/><path d="M38.6554 69.2703C24.4456 69.2703 12.8851 57.7098 12.8851 43.5 12.8851 29.2902 24.4456 17.7297 38.6554 17.7297 47.8246 17.7297 56.376 22.664 60.9722 30.6068L49.8195 37.0604C47.5191 33.0847 43.241 30.6148 38.6554 30.6148 31.5504 30.6148 25.7703 36.395 25.7703 43.5 25.7703 50.6047 31.5504 56.3851 38.6554 56.3851 43.2415 56.3851 47.5196 53.9152 49.8203 49.9388L60.973 56.3922C56.3768 64.3358 47.8251 69.2703 38.6554 69.2703Z" fill="#FFFFFF" transform="matrix(1.00789 0 0 1 1377.04 2961)"/><path d="M64.4257 42.0682 61.5622 42.0682 61.5622 39.2049 58.6991 39.2049 58.6991 42.0682 55.8356 42.0682 55.8356 44.9315 58.6991 44.9315 58.6991 47.795 61.5622 47.795 61.5622 44.9315 64.4257 44.9315Z" fill="#FFFFFF" transform="matrix(1.00789 0 0 1 1377.04 2961)"/><path d="M75.1633 42.0682 72.2998 42.0682 72.2998 39.2049 69.4368 39.2049 69.4368 42.0682 66.5732 42.0682 66.5732 44.9315 69.4368 44.9315 69.4368 47.795 72.2998 47.795 72.2998 44.9315 75.1633 44.9315Z" fill="#FFFFFF" transform="matrix(1.00789 0 0 1 1377.04 2961)"/></g></g></g><text font-family="JetBrains Mono,JetBrains Mono_MSFontService,sans-serif" font-weight="400" font-size="64" transform="matrix(1 0 0 1 1122.68 3025)">Hammer</text><path d="M2866.5 2768.17C2866.5 2756.75 2875.75 2747.5 2887.17 2747.5L2969.83 2747.5C2981.25 2747.5 2990.5 2756.75 2990.5 2768.17L2990.5 2852.83C2990.5 2864.25 2981.25 2873.5 2969.83 2873.5L2887.17 2873.5C2875.75 2873.5 2866.5 2864.25 2866.5 2852.83Z" stroke="#172C51" stroke-width="4.58333" stroke-miterlimit="8" fill="#FFD5D5" fill-rule="evenodd"/><path d="M2866.5 2972.17C2866.5 2960.75 2875.75 2951.5 2887.17 2951.5L2969.83 2951.5C2981.25 2951.5 2990.5 2960.75 2990.5 2972.17L2990.5 3057.83C2990.5 3069.25 2981.25 3078.5 2969.83 3078.5L2887.17 3078.5C2875.75 3078.5 2866.5 3069.25 2866.5 3057.83Z" stroke="#172C51" stroke-width="4.58333" stroke-miterlimit="8" fill="#DEEBF7" fill-rule="evenodd"/><text fill="#0D0CFC" font-family="Consolas,Consolas_MSFontService,sans-serif" font-weight="400" font-size="64" transform="matrix(1 0 0 1 3071.11 2832)">–</text><text fill="#0D0CFC" font-family="Consolas,Consolas_MSFontService,sans-serif" font-weight="400" font-size="64" transform="matrix(1 0 0 1 3142.15 2832)">miriscv</text><text fill="#0D0CFC" font-family="Consolas,Consolas_MSFontService,sans-serif" font-weight="400" font-size="64" transform="matrix(1 0 0 1 3390.8 2832)">_mem</text><text fill="#0D0CFC" font-family="Consolas,Consolas_MSFontService,sans-serif" font-weight="400" font-size="64" transform="matrix(1 0 0 1 3532.88 2832)">_</text><text fill="#0D0CFC" font-family="Consolas,Consolas_MSFontService,sans-serif" font-weight="400" font-size="64" transform="matrix(1 0 0 1 3568.4 2832)">item</text><text fill="#0D0CFC" font-family="Consolas,Consolas_MSFontService,sans-serif" font-weight="400" font-size="64" transform="matrix(1 0 0 1 3071.11 3035)">–</text><text fill="#0D0CFC" font-family="Consolas,Consolas_MSFontService,sans-serif" font-weight="400" font-size="64" transform="matrix(1 0 0 1 3142.15 3035)">miriscv_</text><text fill="#0D0CFC" font-family="Consolas,Consolas_MSFontService,sans-serif" font-weight="400" font-size="64" transform="matrix(1 0 0 1 3426.32 3035)">rvfi</text><text fill="#0D0CFC" font-family="Consolas,Consolas_MSFontService,sans-serif" font-weight="400" font-size="64" transform="matrix(1 0 0 1 3568.4 3035)">_</text><text fill="#0D0CFC" font-family="Consolas,Consolas_MSFontService,sans-serif" font-weight="400" font-size="64" transform="matrix(1 0 0 1 3603.92 3035)">item</text></g></svg>